name rise30.6535peak61.5555fall82.9339.mot
datacolumns 19
datarows 30
range 5.90497700000000 5.95330800000000
endheader
time	ground_force1_vx	ground_force1_vy	ground_force1_vz	ground_force1_px	ground_force1_py	ground_force1_pz	ground_force2_vx	ground_force2_vy	ground_force2_vz	ground_force2_px	ground_force2_py	ground_force2_pz	ground_torque1_x	ground_torque1_y	ground_torque1_z	ground_torque2_x	ground_torque2_y	ground_torque2_z	
5.90497700000000	8.82487200000000	710.68286400000000	39.28370100000000	0.21840300000000	0.00000000000000	0.10159300000000	0.00000000000000	0.00000000000000	0.00000000000000	0.00000000000000	0.00000000000000	0.00000000000000	0.00000000000000	15.05277900000000	0.00000000000000	0.00000000000000	0.00000000000000	0.00000000000000	
5.90665000000000	8.24490000000000	711.61897999999997	39.31775200000000	0.21734000000000	0.00000000000000	0.10163300000000	0.00000000000000	0.00000000000000	0.00000000000000	0.00000000000000	0.00000000000000	0.00000000000000	0.00000000000000	15.12606200000000	0.00000000000000	0.00000000000000	0.00000000000000	0.00000000000000	
5.90830200000000	7.65245200000000	712.58270000000005	39.35416000000000	0.21625200000000	0.00000000000000	0.10167400000000	0.00000000000000	0.00000000000000	0.00000000000000	0.00000000000000	0.00000000000000	0.00000000000000	0.00000000000000	15.20190300000000	0.00000000000000	0.00000000000000	0.00000000000000	0.00000000000000	
5.90997700000000	7.04774800000000	713.57305899999994	39.39279100000000	0.21514100000000	0.00000000000000	0.10171600000000	0.00000000000000	0.00000000000000	0.00000000000000	0.00000000000000	0.00000000000000	0.00000000000000	0.00000000000000	15.28026200000000	0.00000000000000	0.00000000000000	0.00000000000000	0.00000000000000	
5.91163600000000	6.43105000000000	714.58912099999998	39.43352000000000	0.21400900000000	0.00000000000000	0.10176000000000	0.00000000000000	0.00000000000000	0.00000000000000	0.00000000000000	0.00000000000000	0.00000000000000	0.00000000000000	15.36109900000000	0.00000000000000	0.00000000000000	0.00000000000000	0.00000000000000	
5.91330400000000	5.80266100000000	715.62998400000004	39.47622200000000	0.21285700000000	0.00000000000000	0.10180500000000	0.00000000000000	0.00000000000000	0.00000000000000	0.00000000000000	0.00000000000000	0.00000000000000	0.00000000000000	15.44437100000000	0.00000000000000	0.00000000000000	0.00000000000000	0.00000000000000	
5.91497100000000	5.16292400000000	716.69477500000005	39.52078400000000	0.21168700000000	0.00000000000000	0.10185100000000	0.00000000000000	0.00000000000000	0.00000000000000	0.00000000000000	0.00000000000000	0.00000000000000	0.00000000000000	15.53003800000000	0.00000000000000	0.00000000000000	0.00000000000000	0.00000000000000	
5.91664200000000	4.51222100000000	717.78265299999998	39.56709500000000	0.21050000000000	0.00000000000000	0.10189800000000	0.00000000000000	0.00000000000000	0.00000000000000	0.00000000000000	0.00000000000000	0.00000000000000	0.00000000000000	15.61805500000000	0.00000000000000	0.00000000000000	0.00000000000000	0.00000000000000	
5.91831100000000	3.85097000000000	718.89280900000006	39.61505200000000	0.20929700000000	0.00000000000000	0.10194600000000	0.00000000000000	0.00000000000000	0.00000000000000	0.00000000000000	0.00000000000000	0.00000000000000	0.00000000000000	15.70837800000000	0.00000000000000	0.00000000000000	0.00000000000000	0.00000000000000	
5.91997600000000	3.17962300000000	720.02445899999998	39.66455700000000	0.20808200000000	0.00000000000000	0.10199500000000	0.00000000000000	0.00000000000000	0.00000000000000	0.00000000000000	0.00000000000000	0.00000000000000	0.00000000000000	15.80095800000000	0.00000000000000	0.00000000000000	0.00000000000000	0.00000000000000	
5.92164300000000	2.49866700000000	721.17685400000005	39.71552000000000	0.20685600000000	0.00000000000000	0.10204400000000	0.00000000000000	0.00000000000000	0.00000000000000	0.00000000000000	0.00000000000000	0.00000000000000	0.00000000000000	15.89574800000000	0.00000000000000	0.00000000000000	0.00000000000000	0.00000000000000	
5.92331200000000	1.80861900000000	722.34926900000005	39.76785700000000	0.20562000000000	0.00000000000000	0.10209400000000	0.00000000000000	0.00000000000000	0.00000000000000	0.00000000000000	0.00000000000000	0.00000000000000	0.00000000000000	15.99269300000000	0.00000000000000	0.00000000000000	0.00000000000000	0.00000000000000	
5.92497000000000	1.11002400000000	723.54100700000004	39.82149100000000	0.20437700000000	0.00000000000000	0.10214300000000	0.00000000000000	0.00000000000000	0.00000000000000	0.00000000000000	0.00000000000000	0.00000000000000	0.00000000000000	16.09173700000000	0.00000000000000	0.00000000000000	0.00000000000000	0.00000000000000	
5.92663800000000	0.40345500000000	724.75139700000000	39.87635100000000	0.20312900000000	0.00000000000000	0.10219300000000	0.00000000000000	0.00000000000000	0.00000000000000	0.00000000000000	0.00000000000000	0.00000000000000	0.00000000000000	16.19282200000000	0.00000000000000	0.00000000000000	0.00000000000000	0.00000000000000	
5.92830500000000	-0.31049000000000	725.97978999999998	39.93237600000000	0.20187900000000	0.00000000000000	0.10224300000000	0.00000000000000	0.00000000000000	0.00000000000000	0.00000000000000	0.00000000000000	0.00000000000000	0.00000000000000	16.29588200000000	0.00000000000000	0.00000000000000	0.00000000000000	0.00000000000000	
5.92997200000000	-1.03119400000000	727.22556199999997	39.98950800000000	0.20062700000000	0.00000000000000	0.10229200000000	0.00000000000000	0.00000000000000	0.00000000000000	0.00000000000000	0.00000000000000	0.00000000000000	0.00000000000000	16.40085100000000	0.00000000000000	0.00000000000000	0.00000000000000	0.00000000000000	
5.93164100000000	-1.75801700000000	728.48810600000002	40.04770000000000	0.19937600000000	0.00000000000000	0.10234200000000	0.00000000000000	0.00000000000000	0.00000000000000	0.00000000000000	0.00000000000000	0.00000000000000	0.00000000000000	16.50765500000000	0.00000000000000	0.00000000000000	0.00000000000000	0.00000000000000	
5.93330300000000	-2.49030200000000	729.76683600000001	40.10691200000000	0.19812900000000	0.00000000000000	0.10239000000000	0.00000000000000	0.00000000000000	0.00000000000000	0.00000000000000	0.00000000000000	0.00000000000000	0.00000000000000	16.61621600000000	0.00000000000000	0.00000000000000	0.00000000000000	0.00000000000000	
5.93497400000000	-3.22737900000000	731.06118000000004	40.16711000000000	0.19688700000000	0.00000000000000	0.10243800000000	0.00000000000000	0.00000000000000	0.00000000000000	0.00000000000000	0.00000000000000	0.00000000000000	0.00000000000000	16.72645400000000	0.00000000000000	0.00000000000000	0.00000000000000	0.00000000000000	
5.93664300000000	-3.96856300000000	732.37058100000002	40.22827100000000	0.19565100000000	0.00000000000000	0.10248500000000	0.00000000000000	0.00000000000000	0.00000000000000	0.00000000000000	0.00000000000000	0.00000000000000	0.00000000000000	16.83828000000000	0.00000000000000	0.00000000000000	0.00000000000000	0.00000000000000	
5.93830500000000	-4.71316100000000	733.69449299999997	40.29037800000000	0.19442500000000	0.00000000000000	0.10253100000000	0.00000000000000	0.00000000000000	0.00000000000000	0.00000000000000	0.00000000000000	0.00000000000000	0.00000000000000	16.95160200000000	0.00000000000000	0.00000000000000	0.00000000000000	0.00000000000000	
5.93997700000000	-5.46047100000000	735.03237999999999	40.35342400000000	0.19320900000000	0.00000000000000	0.10257600000000	0.00000000000000	0.00000000000000	0.00000000000000	0.00000000000000	0.00000000000000	0.00000000000000	0.00000000000000	17.06632200000000	0.00000000000000	0.00000000000000	0.00000000000000	0.00000000000000	
5.94164400000000	-6.20978500000000	736.38370899999995	40.41740700000000	0.19200500000000	0.00000000000000	0.10261900000000	0.00000000000000	0.00000000000000	0.00000000000000	0.00000000000000	0.00000000000000	0.00000000000000	0.00000000000000	17.18233700000000	0.00000000000000	0.00000000000000	0.00000000000000	0.00000000000000	
5.94330400000000	-6.96039200000000	737.74795500000005	40.48233800000000	0.19081500000000	0.00000000000000	0.10266100000000	0.00000000000000	0.00000000000000	0.00000000000000	0.00000000000000	0.00000000000000	0.00000000000000	0.00000000000000	17.29954000000000	0.00000000000000	0.00000000000000	0.00000000000000	0.00000000000000	
5.94497800000000	-7.71158300000000	739.12459300000000	40.54823400000000	0.18964000000000	0.00000000000000	0.10270200000000	0.00000000000000	0.00000000000000	0.00000000000000	0.00000000000000	0.00000000000000	0.00000000000000	0.00000000000000	17.41781600000000	0.00000000000000	0.00000000000000	0.00000000000000	0.00000000000000	
5.94664100000000	-8.46264600000000	740.51309500000002	40.61512000000000	0.18848200000000	0.00000000000000	0.10274100000000	0.00000000000000	0.00000000000000	0.00000000000000	0.00000000000000	0.00000000000000	0.00000000000000	0.00000000000000	17.53704800000000	0.00000000000000	0.00000000000000	0.00000000000000	0.00000000000000	
5.94830900000000	-9.21287500000000	741.91292999999996	40.68303300000000	0.18734100000000	0.00000000000000	0.10277800000000	0.00000000000000	0.00000000000000	0.00000000000000	0.00000000000000	0.00000000000000	0.00000000000000	0.00000000000000	17.65711300000000	0.00000000000000	0.00000000000000	0.00000000000000	0.00000000000000	
5.94997000000000	-9.96157000000000	743.32356200000004	40.75201500000000	0.18621800000000	0.00000000000000	0.10281400000000	0.00000000000000	0.00000000000000	0.00000000000000	0.00000000000000	0.00000000000000	0.00000000000000	0.00000000000000	17.77788300000000	0.00000000000000	0.00000000000000	0.00000000000000	0.00000000000000	
5.95164100000000	-10.70803700000000	744.74444200000005	40.82211900000000	0.18511500000000	0.00000000000000	0.10284700000000	0.00000000000000	0.00000000000000	0.00000000000000	0.00000000000000	0.00000000000000	0.00000000000000	0.00000000000000	17.89922600000000	0.00000000000000	0.00000000000000	0.00000000000000	0.00000000000000	
5.95330800000000	-11.45159200000000	746.17501100000004	40.89340400000000	0.18403200000000	0.00000000000000	0.10287900000000	0.00000000000000	0.00000000000000	0.00000000000000	0.00000000000000	0.00000000000000	0.00000000000000	0.00000000000000	18.02100600000000	0.00000000000000	0.00000000000000	0.00000000000000	0.00000000000000	
